<svg xmlns="http://www.w3.org/2000/svg" viewBox="0 0 64 64" fill="none" stroke="#c79a55" stroke-width="3" stroke-linecap="round" stroke-linejoin="round">
  <path d="M8 14 C18 9 26 11 32 16 C38 11 46 9 56 14 V48 C46 43 38 45 32 50 C26 45 18 43 8 48 Z"/>
  <path d="M32 16 V50"/>
  <path d="M14 22 C20 19 25 20 27 22 M14 30 C20 27 25 28 27 30 M14 38 C20 35 25 36 27 38" stroke-width="2"/>
  <path d="M50 22 C44 19 39 20 37 22 M50 30 C44 27 39 28 37 30 M50 38 C44 35 39 36 37 38" stroke-width="2"/>
</svg>
